<svg width="100" height="100" viewBox="0 0 100 100" fill="none" xmlns="http://www.w3.org/2000/svg">
<circle cx="50.4374" cy="49.7126" r="49.5203" fill="#1F1D2B"/>
<circle cx="50.4374" cy="49.7126" r="47.5203" stroke="#FF6838" stroke-opacity="0.79" stroke-width="4"/>
<path d="M72.1254 25.6126H26.3375V31.2832H31.8803L40.3655 58.7373C40.7045 59.8303 41.3205 60.7745 42.1304 61.4423C42.9402 62.1101 43.9047 62.4693 44.8937 62.4714H64.8957V56.8008H44.8937L43.1393 51.1302H64.8957C65.8597 51.1302 66.7321 50.4554 67.1104 49.412L74.3401 29.565C74.4985 29.1338 74.5632 28.6631 74.5283 28.1951C74.4935 27.7272 74.3602 27.2769 74.1404 26.8847C73.9207 26.4926 73.6214 26.1709 73.2696 25.9488C72.9179 25.7268 72.5246 25.6112 72.1254 25.6126V25.6126Z" fill="#FF6838"/>
<path d="M46.8215 73.8126C48.8179 73.8126 50.4363 71.9085 50.4363 69.5596C50.4363 67.2108 48.8179 65.3067 46.8215 65.3067C44.8251 65.3067 43.2067 67.2108 43.2067 69.5596C43.2067 71.9085 44.8251 73.8126 46.8215 73.8126Z" fill="#FF6838"/>
<path d="M61.2808 73.8126C63.2773 73.8126 64.8957 71.9085 64.8957 69.5596C64.8957 67.2108 63.2773 65.3067 61.2808 65.3067C59.2844 65.3067 57.666 67.2108 57.666 69.5596C57.666 71.9085 59.2844 73.8126 61.2808 73.8126Z" fill="#FF6838"/>
</svg>
