<svg width="100" height="100" viewBox="0 0 100 100" fill="none" xmlns="http://www.w3.org/2000/svg">
<circle cx="49.9374" cy="50.0203" r="49.5203" fill="#1F1D2B"/>
<circle cx="49.9374" cy="50.0203" r="47.5203" stroke="#9483FD" stroke-opacity="0.79" stroke-width="4"/>
<path d="M57.4325 26.9291C56.8813 26.538 56.244 26.2506 55.5602 26.0847C54.8764 25.9187 54.1609 25.8779 53.4582 25.9646C52.7556 26.0514 52.0809 26.264 51.4764 26.589C50.8718 26.9141 50.3502 27.3447 49.9443 27.8539L39.4711 40.9795H43.6714L52.7605 29.5771C52.8959 29.407 53.07 29.2631 53.2719 29.1546C53.4738 29.046 53.6991 28.9751 53.9337 28.9463C54.1683 28.9174 54.4072 28.9313 54.6355 28.987C54.8637 29.0426 55.0763 29.1389 55.2601 29.2698L58.0419 31.246L50.3505 40.9795H54.5371L60.7204 33.1469L66.5182 37.2651C66.856 37.5054 67.0772 37.8488 67.1373 38.2261C67.1973 38.6034 67.0918 38.9866 66.8418 39.2985L65.4991 40.9795H69.6994C70.4294 40.0431 70.7305 38.9008 70.543 37.7792C70.3555 36.6576 69.6931 35.6386 68.6872 34.9243L57.4291 26.9291H57.4325ZM31.0017 37.97C29.632 37.97 28.3185 38.4461 27.35 39.2935C26.3815 40.141 25.8374 41.2903 25.8374 42.4888V66.589C25.8374 68.5864 26.7442 70.502 28.3584 71.9144C29.9725 73.3268 32.1618 74.1203 34.4445 74.1203H67.1517C68.9779 74.1203 70.7293 73.4855 72.0206 72.3556C73.3119 71.2257 74.0374 69.6932 74.0374 68.0952V50.0201C74.0374 48.4222 73.3119 46.8897 72.0206 45.7597C70.7293 44.6298 68.9779 43.995 67.1517 43.995H31.0017C30.5451 43.995 30.1073 43.8364 29.7845 43.5539C29.4616 43.2714 29.2803 42.8883 29.2803 42.4888C29.2803 42.0893 29.4616 41.7062 29.7845 41.4237C30.1073 41.1412 30.5451 40.9825 31.0017 40.9825H36.0592L38.4692 37.97H31.0017ZM61.9874 59.0577H65.4303C65.8868 59.0577 66.3247 59.2164 66.6475 59.4988C66.9703 59.7813 67.1517 60.1644 67.1517 60.5639C67.1517 60.9634 66.9703 61.3465 66.6475 61.629C66.3247 61.9115 65.8868 62.0702 65.4303 62.0702H61.9874C61.5309 62.0702 61.093 61.9115 60.7702 61.629C60.4473 61.3465 60.266 60.9634 60.266 60.5639C60.266 60.1644 60.4473 59.7813 60.7702 59.4988C61.093 59.2164 61.5309 59.0577 61.9874 59.0577Z" fill="#9483FD"/>
</svg>
