<svg width="100" height="100" viewBox="0 0 100 100" fill="none" xmlns="http://www.w3.org/2000/svg">
<circle cx="50.2466" cy="49.7126" r="47.5203" fill="#1F1D2B" stroke="#FDA53F" stroke-width="4"/>
<path d="M41.4426 69.5216H32.6385C32.0548 69.5216 31.495 69.2897 31.0822 68.877C30.6694 68.4642 30.4375 67.9044 30.4375 67.3206V58.5166C30.4375 57.9328 30.2056 57.373 29.7929 56.9602C29.3801 56.5475 28.8203 56.3156 28.2365 56.3156C27.6528 56.3156 27.093 56.5475 26.6802 56.9602C26.2674 57.373 26.0355 57.9328 26.0355 58.5166V67.3206C26.0355 69.0718 26.7312 70.7514 27.9695 71.9897C29.2078 73.228 30.8873 73.9236 32.6385 73.9236H41.4426C42.0263 73.9236 42.5862 73.6918 42.9989 73.279C43.4117 72.8662 43.6436 72.3064 43.6436 71.7226C43.6436 71.1389 43.4117 70.5791 42.9989 70.1663C42.5862 69.7535 42.0263 69.5216 41.4426 69.5216ZM72.2567 56.3156C71.6729 56.3156 71.1131 56.5475 70.7003 56.9602C70.2876 57.373 70.0557 57.9328 70.0557 58.5166V67.3206C70.0557 67.9044 69.8238 68.4642 69.411 68.877C68.9983 69.2897 68.4384 69.5216 67.8547 69.5216H59.0506C58.4669 69.5216 57.9071 69.7535 57.4943 70.1663C57.0815 70.5791 56.8496 71.1389 56.8496 71.7226C56.8496 72.3064 57.0815 72.8662 57.4943 73.279C57.9071 73.6918 58.4669 73.9236 59.0506 73.9236H67.8547C69.6059 73.9236 71.2854 73.228 72.5237 71.9897C73.762 70.7514 74.4577 69.0718 74.4577 67.3206V58.5166C74.4577 57.9328 74.2258 57.373 73.813 56.9602C73.4003 56.5475 72.8404 56.3156 72.2567 56.3156ZM67.8547 25.5015H59.0506C58.4669 25.5015 57.9071 25.7334 57.4943 26.1461C57.0815 26.5589 56.8496 27.1187 56.8496 27.7025C56.8496 28.2862 57.0815 28.8461 57.4943 29.2588C57.9071 29.6716 58.4669 29.9035 59.0506 29.9035H67.8547C68.4384 29.9035 68.9983 30.1354 69.411 30.5481C69.8238 30.9609 70.0557 31.5207 70.0557 32.1045V40.9085C70.0557 41.4923 70.2876 42.0521 70.7003 42.4649C71.1131 42.8776 71.6729 43.1095 72.2567 43.1095C72.8404 43.1095 73.4003 42.8776 73.813 42.4649C74.2258 42.0521 74.4577 41.4923 74.4577 40.9085V32.1045C74.4577 30.3533 73.762 28.6738 72.5237 27.4354C71.2854 26.1971 69.6059 25.5015 67.8547 25.5015ZM28.2365 43.1095C28.8203 43.1095 29.3801 42.8776 29.7929 42.4649C30.2056 42.0521 30.4375 41.4923 30.4375 40.9085V32.1045C30.4375 31.5207 30.6694 30.9609 31.0822 30.5481C31.495 30.1354 32.0548 29.9035 32.6385 29.9035H41.4426C42.0263 29.9035 42.5862 29.6716 42.9989 29.2588C43.4117 28.8461 43.6436 28.2862 43.6436 27.7025C43.6436 27.1187 43.4117 26.5589 42.9989 26.1461C42.5862 25.7334 42.0263 25.5015 41.4426 25.5015H32.6385C30.8873 25.5015 29.2078 26.1971 27.9695 27.4354C26.7312 28.6738 26.0355 30.3533 26.0355 32.1045V40.9085C26.0355 41.4923 26.2674 42.0521 26.6802 42.4649C27.093 42.8776 27.6528 43.1095 28.2365 43.1095ZM45.8446 34.3055H37.0406C36.4568 34.3055 35.897 34.5374 35.4842 34.9502C35.0714 35.3629 34.8396 35.9228 34.8396 36.5065V45.3105C34.8396 45.8943 35.0714 46.4541 35.4842 46.8669C35.897 47.2797 36.4568 47.5115 37.0406 47.5115H45.8446C46.4283 47.5115 46.9882 47.2797 47.4009 46.8669C47.8137 46.4541 48.0456 45.8943 48.0456 45.3105V36.5065C48.0456 35.9228 47.8137 35.3629 47.4009 34.9502C46.9882 34.5374 46.4283 34.3055 45.8446 34.3055ZM43.6436 43.1095H39.2416V38.7075H43.6436V43.1095ZM54.6486 47.5115H63.4527C64.0364 47.5115 64.5962 47.2797 65.009 46.8669C65.4218 46.4541 65.6537 45.8943 65.6537 45.3105V36.5065C65.6537 35.9228 65.4218 35.3629 65.009 34.9502C64.5962 34.5374 64.0364 34.3055 63.4527 34.3055H54.6486C54.0649 34.3055 53.505 34.5374 53.0923 34.9502C52.6795 35.3629 52.4476 35.9228 52.4476 36.5065V45.3105C52.4476 45.8943 52.6795 46.4541 53.0923 46.8669C53.505 47.2797 54.0649 47.5115 54.6486 47.5115ZM56.8496 38.7075H61.2517V43.1095H56.8496V38.7075ZM45.8446 51.9136H37.0406C36.4568 51.9136 35.897 52.1455 35.4842 52.5582C35.0714 52.971 34.8396 53.5308 34.8396 54.1146V62.9186C34.8396 63.5023 35.0714 64.0622 35.4842 64.475C35.897 64.8877 36.4568 65.1196 37.0406 65.1196H45.8446C46.4283 65.1196 46.9882 64.8877 47.4009 64.475C47.8137 64.0622 48.0456 63.5023 48.0456 62.9186V54.1146C48.0456 53.5308 47.8137 52.971 47.4009 52.5582C46.9882 52.1455 46.4283 51.9136 45.8446 51.9136ZM43.6436 60.7176H39.2416V56.3156H43.6436V60.7176ZM54.6486 58.5166C55.2324 58.5166 55.7922 58.2847 56.205 57.8719C56.6177 57.4592 56.8496 56.8993 56.8496 56.3156C57.4334 56.3156 57.9932 56.0837 58.406 55.6709C58.8188 55.2581 59.0506 54.6983 59.0506 54.1146C59.0506 53.5308 58.8188 52.971 58.406 52.5582C57.9932 52.1455 57.4334 51.9136 56.8496 51.9136H54.6486C54.0649 51.9136 53.505 52.1455 53.0923 52.5582C52.6795 52.971 52.4476 53.5308 52.4476 54.1146V56.3156C52.4476 56.8993 52.6795 57.4592 53.0923 57.8719C53.505 58.2847 54.0649 58.5166 54.6486 58.5166ZM63.4527 51.9136C62.8689 51.9136 62.3091 52.1455 61.8963 52.5582C61.4835 52.971 61.2517 53.5308 61.2517 54.1146V60.7176C60.6679 60.7176 60.1081 60.9495 59.6953 61.3623C59.2825 61.775 59.0506 62.3349 59.0506 62.9186C59.0506 63.5023 59.2825 64.0622 59.6953 64.475C60.1081 64.8877 60.6679 65.1196 61.2517 65.1196H63.4527C64.0364 65.1196 64.5962 64.8877 65.009 64.475C65.4218 64.0622 65.6537 63.5023 65.6537 62.9186V54.1146C65.6537 53.5308 65.4218 52.971 65.009 52.5582C64.5962 52.1455 64.0364 51.9136 63.4527 51.9136ZM54.6486 60.7176C54.2133 60.7176 53.7878 60.8467 53.4258 61.0885C53.0639 61.3304 52.7817 61.6741 52.6152 62.0763C52.4486 62.4785 52.405 62.921 52.4899 63.348C52.5748 63.775 52.7845 64.1671 53.0923 64.475C53.4001 64.7828 53.7923 64.9924 54.2192 65.0773C54.6462 65.1622 55.0887 65.1187 55.4909 64.9521C55.8931 64.7855 56.2368 64.5034 56.4787 64.1414C56.7205 63.7795 56.8496 63.3539 56.8496 62.9186C56.8496 62.3349 56.6177 61.775 56.205 61.3623C55.7922 60.9495 55.2324 60.7176 54.6486 60.7176Z" fill="#FDA53F"/>
</svg>
